<svg version="1.1" xmlns="http://www.w3.org/2000/svg" xmlns:xlink="http://www.w3.org/1999/xlink" width="271.000000pt" height="168.000000pt" viewBox="0,0,256,158.6875"><g fill="#ffffff" fill-rule="nonzero" stroke="none" stroke-width="1" stroke-linecap="butt" stroke-linejoin="miter" stroke-miterlimit="10" stroke-dasharray="" stroke-dashoffset="0" font-family="none" font-weight="none" font-size="none" text-anchor="none" style="mix-blend-mode: normal"><g transform="translate(1.47533,0.87656) scale(0.94465,0.94465)"><g transform="translate(0,168) scale(0.1,-0.1)"><path d="M1255,1621c-78,-14 -102,-23 -173,-68c-81,-52 -93,-68 -70,-91c18,-18 42,-15 108,13c33,14 70,25 83,25c16,0 28,9 35,25c22,47 75,46 187,-5c86,-40 71,-52 -17,-14c-82,34 -120,40 -137,20c-26,-31 -7,-50 109,-113c203,-110 192,-107 254,-89c30,9 81,16 113,16c33,0 67,6 76,13c16,11 97,169 97,188c0,13 -37,11 -138,-6c-82,-14 -92,-14 -162,4c-41,10 -113,38 -159,60c-47,23 -92,40 -100,40c-9,-1 -57,-9 -106,-18z"></path><path d="M1135,1413c-27,-8 -51,-16 -53,-17c-1,-2 20,-48 47,-102c66,-134 91,-211 91,-283c0,-68 -11,-85 -68,-101c-86,-23 -207,0 -287,55c-56,39 -50,43 -79,-52c-9,-28 -16,-58 -16,-65c0,-20 107,-75 222,-114c118,-40 267,-69 281,-55c5,5 18,39 28,76c26,96 39,111 102,125c170,35 287,152 287,286c0,53 -16,64 -92,64c-93,0 -124,14 -162,74c-39,62 -79,93 -143,112c-58,17 -94,17 -158,-3zM1362,1243c23,-21 23,-36 -2,-58c-42,-38 -94,19 -54,59c20,20 33,20 56,-1z"></path><path d="M964,1382c-76,-56 -121,-142 -138,-268c-7,-50 -7,-50 37,-91c71,-66 121,-87 202,-88c79,0 120,9 128,27c10,26 -12,129 -45,210c-41,102 -117,238 -133,238c-7,0 -30,-13 -51,-28z"></path><path d="M1913,398c-23,-51 -61,-137 -84,-190c-36,-84 -45,-98 -65,-98c-19,0 -24,-5 -24,-25c0,-24 3,-25 60,-25c47,0 62,4 67,16c4,10 -1,22 -10,29c-15,11 -16,16 -1,58c8,25 21,51 29,57c8,6 40,10 76,8l63,-3l22,-55c18,-45 20,-56 8,-58c-8,-2 -14,-14 -14,-28c0,-23 3,-24 66,-24c62,0 65,1 62,22c-2,14 -12,24 -26,28c-25,5 -46,46 -145,278l-43,102zM1993,278c-2,-5 -22,-8 -44,-8c-45,0 -45,1 -12,80l14,34l23,-49c13,-28 21,-53 19,-57z"></path><path d="M166,295c-70,-166 -81,-185 -102,-185c-19,0 -24,-5 -24,-25c0,-25 1,-26 62,-23c51,2 63,6 66,21c2,10 -5,20 -16,25c-19,7 -19,9 6,65l25,57h66h67l23,-56c22,-52 22,-56 6,-68c-11,-8 -16,-20 -12,-30c6,-14 18,-16 69,-14c55,3 63,5 63,23c0,14 -8,21 -25,23c-23,3 -34,22 -104,187c-43,102 -81,185 -85,185c-4,0 -42,-83 -85,-185zM277,330c11,-27 19,-51 15,-54c-9,-9 -82,-7 -82,2c0,17 32,102 38,102c4,0 17,-23 29,-50z"></path><path d="M513,464c-4,-10 1,-22 10,-29c15,-10 17,-34 17,-165c0,-131 -2,-155 -17,-165c-10,-8 -14,-19 -9,-30c10,-26 164,-17 222,13c159,82 148,307 -18,376c-53,23 -196,22 -205,0zM721,408c44,-24 79,-85 79,-136c0,-48 -29,-110 -62,-133c-20,-14 -51,-23 -94,-27l-64,-5v162v161h51c34,0 64,-7 90,-22z"></path><path d="M1015,463c-148,-77 -162,-273 -27,-368c40,-27 51,-30 121,-30c69,0 81,3 114,28c88,67 118,159 83,251c-18,47 -79,110 -122,126c-39,15 -135,11 -169,-7zM1176,421c137,-62 130,-253 -11,-306c-139,-54 -274,94 -209,230c20,43 44,64 91,81c52,18 81,17 129,-5z"></path><path d="M1493,464c-18,-9 -48,-34 -67,-55c-95,-105 -63,-263 66,-330c61,-31 188,-21 188,15c0,23 -11,25 -62,14c-39,-9 -55,-8 -92,6c-142,54 -149,245 -12,307c64,29 136,20 136,-16c0,-8 9,-15 20,-15c16,0 20,7 20,33c0,26 -6,36 -25,45c-37,17 -134,14 -172,-4z"></path><path d="M2317,449c-27,-17 -59,-51 -73,-75c-23,-39 -26,-53 -23,-117c3,-54 10,-80 26,-103c65,-91 187,-120 282,-69c68,37 104,92 109,168c10,133 -79,227 -214,227c-51,0 -68,-5 -107,-31zM2495,421c22,-10 51,-31 65,-45c22,-25 25,-36 25,-106c0,-76 -1,-80 -33,-113c-69,-72 -169,-73 -239,-3c-66,67 -71,154 -10,223c55,63 119,78 192,44z"></path></g></g></g></svg>